<svg xmlns="http://www.w3.org/2000/svg" width="14" height="20" viewBox="0 0 14 20" fill="none">
<path fill-rule="evenodd" clip-rule="evenodd" d="M5.33333 20C4.22876 20 3.33333 19.1046 3.33333 18V11.7341C1.37996 10.953 0 9.04305 0 6.81078V4.5C0 2.01472 2.01472 0 4.5 0C5.60457 0 6.5 0.89543 6.5 2V5.5C6.5 5.77614 6.72386 6 7 6C7.27614 6 7.5 5.77614 7.5 5.5V2C7.5 0.89543 8.39543 0 9.5 0C11.9853 0 14 2.01472 14 4.5V6.81078C14 9.04305 12.62 10.953 10.6667 11.7341V18C10.6667 19.1046 9.77124 20 8.66667 20H5.33333ZM8.66667 18H5.33333V10.1441C5.33333 10.1259 5.31856 10.1111 5.30033 10.1111C3.47761 10.1111 2 8.6335 2 6.81078V4.5C2 3.93709 2.18604 3.41763 2.5 2.99976C2.95611 2.39267 3.6822 2 4.5 2V5.5C4.5 6.88071 5.61929 8 7 8C8.38071 8 9.5 6.88071 9.5 5.5V2C10.3178 2 11.0439 2.39267 11.5 2.99976C11.814 3.41763 12 3.93709 12 4.5V6.81078C12 8.6335 10.5224 10.1111 8.69967 10.1111C8.68144 10.1111 8.66667 10.1259 8.66667 10.1441V18Z" fill="#4CD0A1"/>
</svg>