<svg xmlns="http://www.w3.org/2000/svg" width="31" height="26" viewBox="0 0 31 26" fill="none">
<path d="M9.74916 26C21.4479 26 27.8454 15.9981 27.8454 7.32475C27.8454 7.04069 27.8398 6.75792 27.8274 6.47633C29.0722 5.54684 30.1465 4.39591 31 3.07751C29.8604 3.60032 28.634 3.95223 27.3477 4.1109C28.6607 3.29823 29.6688 2.01288 30.1444 0.480515C28.8958 1.2449 27.53 1.78372 26.1057 2.07375C24.9451 0.79796 23.2929 0 21.4632 0C17.9508 0 15.1026 2.93945 15.1026 6.56275C15.1026 7.07783 15.1585 7.57885 15.2676 8.05937C9.98155 7.78486 5.29427 5.17305 2.15728 1.20161C1.59229 2.20321 1.29509 3.34164 1.29605 4.50059C1.29605 6.77778 2.4189 8.78808 4.12638 9.96414C3.1164 9.93235 2.12857 9.65082 1.24591 9.14321C1.24498 9.1708 1.24498 9.19764 1.24498 9.22705C1.24498 12.4058 3.43731 15.0598 6.34753 15.6612C5.80094 15.8148 5.23693 15.8925 4.67043 15.8922C4.26924 15.8919 3.86899 15.8523 3.47507 15.7738C4.28481 18.3818 6.63277 20.2795 9.41649 20.3326C7.23965 22.0934 4.49744 23.1421 1.51711 23.1421C1.00437 23.1421 0.497866 23.1121 0 23.0513C2.81482 24.9133 6.15716 25.9997 9.74947 25.9997" fill="#BCC9DB"/>
</svg>