<svg xmlns="http://www.w3.org/2000/svg" width="18" height="18" viewBox="0 0 18 18" fill="none">
<path d="M5.12972 1H2.68421C1.75405 1 1 1.75405 1 2.68421C1 10.5906 7.4094 17 15.3158 17C16.246 17 17 16.246 17 15.3158V12.8703C17 12.1433 16.5574 11.4896 15.8825 11.2197L13.5397 10.2825C12.9334 10.04 12.2429 10.1494 11.7413 10.5674L11.1361 11.0718C10.4297 11.6604 9.39107 11.6133 8.74091 10.9631L7.03687 9.25909C6.38671 8.60893 6.33959 7.57027 6.92822 6.86391L7.43257 6.25869C7.8506 5.75706 7.95998 5.06662 7.71747 4.46034L6.78034 2.11753C6.51036 1.44258 5.85666 1 5.12972 1Z" stroke="#BCC9DB" stroke-width="1.5" stroke-linecap="round" stroke-linejoin="round"/>
</svg>