<svg xmlns="http://www.w3.org/2000/svg" width="16" height="21" viewBox="0 0 16 21" fill="none">
<path fill-rule="evenodd" clip-rule="evenodd" d="M8 14.6957C7.21788 14.6957 6.59078 14.7508 6.05574 14.8325C3.85024 15.1695 2 17.5109 2 19.913C2 20.4893 1.55228 20.9565 1 20.9565C0.447715 20.9565 0 20.4893 0 19.913C0 17.2073 1.62494 14.5495 3.9591 13.3564C2.1687 12.0334 1 9.85477 1 7.39131C1 3.35723 4.13401 0.0869598 8 0.0869598C11.866 0.0869598 15 3.35723 15 7.39131C15 9.85477 13.8313 12.0334 12.0409 13.3564C14.3751 14.5495 16 17.2073 16 19.913C16 20.4893 15.5523 20.9565 15 20.9565C14.4477 20.9565 14 20.4893 14 19.913C14 17.5109 12.1498 15.1695 9.94426 14.8325C9.40922 14.7508 8.78212 14.6957 8 14.6957ZM8 12.6087C5.23858 12.6087 3 10.2728 3 7.39131C3 4.50982 5.23858 2.17392 8 2.17392C10.7614 2.17392 13 4.50982 13 7.39131C13 10.2728 10.7614 12.6087 8 12.6087Z" fill="#BCC9DB"/>
</svg>