<svg xmlns="http://www.w3.org/2000/svg" width="19" height="18" viewBox="0 0 19 18" fill="none">
<path fill-rule="evenodd" clip-rule="evenodd" d="M9.25 18C4.27944 18 0.25 13.9706 0.25 9C0.25 4.02944 4.27944 0 9.25 0C14.2206 0 18.25 4.02944 18.25 9C18.25 13.9706 14.2206 18 9.25 18ZM9.25 1.8C9.08101 1.8 8.91339 1.80582 8.74731 1.81728C8.71654 1.85626 8.68337 1.89926 8.64812 1.94625C8.42366 2.24553 8.11571 2.70605 7.80498 3.32749C7.52553 3.88639 7.24303 4.57697 7.017 5.4H11.483C11.257 4.57697 10.9745 3.88639 10.695 3.32749C10.3843 2.70605 10.0763 2.24553 9.85187 1.94625C9.81663 1.89926 9.78346 1.85626 9.75269 1.81728C9.58661 1.80582 9.41899 1.8 9.25 1.8ZM4.75 9C4.75 8.36575 4.78527 7.76572 4.84815 7.2H2.27683C2.12876 7.77532 2.05 8.37846 2.05 9C2.05 9.62154 2.12876 10.2247 2.27683 10.8H4.84815C4.78527 10.2343 4.75 9.63425 4.75 9ZM5.15924 12.6H3.01323C3.75327 13.8793 4.87562 14.9098 6.22405 15.5352L6.19502 15.4775C5.81189 14.7112 5.43291 13.7517 5.15924 12.6ZM7.017 12.6L11.483 12.6C11.257 13.423 10.9745 14.1136 10.695 14.6725C10.3843 15.294 10.0763 15.7545 9.85187 16.0537C9.81663 16.1007 9.78346 16.1437 9.75269 16.1827C9.58661 16.1942 9.41899 16.2 9.25 16.2C9.08101 16.2 8.91339 16.1942 8.74731 16.1827C8.71654 16.1437 8.68337 16.1007 8.64812 16.0537C8.42366 15.7545 8.11571 15.294 7.80498 14.6725C7.52553 14.1136 7.24303 13.423 7.017 12.6ZM11.8393 10.8H6.66074C6.59039 10.2417 6.55 9.64171 6.55 9C6.55 8.35829 6.59039 7.75834 6.66074 7.2H11.8393C11.9096 7.75834 11.95 8.35829 11.95 9C11.95 9.64171 11.9096 10.2417 11.8393 10.8ZM13.3408 12.6C13.0671 13.7517 12.6881 14.7112 12.305 15.4775L12.2759 15.5352C13.6244 14.9098 14.7467 13.8793 15.4868 12.6H13.3408ZM16.2232 10.8H13.6518C13.7147 10.2343 13.75 9.63425 13.75 9C13.75 8.36575 13.7147 7.76572 13.6518 7.2H16.2232C16.3712 7.77532 16.45 8.37846 16.45 9C16.45 9.62154 16.3712 10.2247 16.2232 10.8ZM6.19502 2.52251C5.81189 3.28876 5.43291 4.24832 5.15924 5.4H3.01323C3.75327 4.1207 4.87561 3.09023 6.22405 2.46482L6.19502 2.52251ZM12.276 2.46482C13.6244 3.09023 14.7467 4.1207 15.4868 5.4H13.3408C13.0671 4.24832 12.6881 3.28876 12.305 2.52251L12.276 2.46482Z" fill="#BCC9DB"/>
</svg>