<svg xmlns="http://www.w3.org/2000/svg" width="19" height="20" viewBox="0 0 19 20" fill="none">
<path d="M11.0946 19H7.90571C7.49405 19 7.13788 18.7057 7.04978 18.2926L6.69322 16.597C6.21756 16.3829 5.76653 16.1152 5.34845 15.7987L3.7391 16.3252C3.34661 16.4538 2.91995 16.2841 2.71409 15.9175L1.11613 13.0816C0.912518 12.7149 0.982666 12.2522 1.28521 11.9665L2.53362 10.7965C2.47684 10.2665 2.47684 9.7317 2.53362 9.2017L1.28521 8.0344C0.98222 7.74853 0.912044 7.28535 1.11613 6.9184L2.71058 4.0807C2.91645 3.71413 3.34311 3.54442 3.73559 3.673L5.34494 4.1995C5.55876 4.03674 5.78134 3.8865 6.01163 3.7495C6.2327 3.62142 6.46022 3.50546 6.69322 3.4021L7.05066 1.7083C7.13833 1.29517 7.49412 1.00044 7.90571 1H11.0946C11.5062 1.00044 11.862 1.29517 11.9497 1.7083L12.3106 3.403C12.5566 3.51416 12.7962 3.63977 13.0281 3.7792C13.2447 3.9077 13.4542 4.04862 13.6554 4.2013L15.2656 3.6748C15.6578 3.5467 16.084 3.71634 16.2897 4.0825L17.8842 6.9202C18.0878 7.28694 18.0177 7.74956 17.7151 8.0353L16.4667 9.2053C16.5235 9.7353 16.5235 10.2701 16.4667 10.8001L17.7151 11.9701C18.0177 12.2558 18.0878 12.7185 17.8842 13.0852L16.2897 15.9229C16.084 16.2891 15.6578 16.4587 15.2656 16.3306L13.6554 15.8041C13.4516 15.9583 13.2399 16.101 13.0211 16.2316C12.7914 16.3683 12.5545 16.4918 12.3115 16.6015L11.9497 18.2926C11.8616 18.7054 11.5059 18.9996 11.0946 19ZM9.49666 7.4C7.56129 7.4 6.99236 8.01178 6.99236 10C6.99236 11.9882 7.56129 12.6 9.49666 12.6C11.432 12.6 12.001 11.9882 12.001 10C12.001 8.01178 11.432 7.4 9.49666 7.4Z" stroke="#BCC9DB" stroke-width="1.5"/>
</svg>