<svg xmlns="http://www.w3.org/2000/svg" width="31" height="34" viewBox="0 0 31 34" fill="#BCC9DB">
    <path fill-rule="evenodd" d="M28.7139 14.392H27.7246V12.9883C27.7246 10.7229 25.8856 8.89555 23.6425 8.89555H16.9765V5.52869C17.853 5.01654 18.4419 4.05972 18.4419 2.96193C18.4419 1.32575 17.1266 0 15.5074 0C13.8861 0 12.564 1.3265 12.564 2.96193C12.564 4.05972 13.147 5.01654 14.0235 5.52869V8.89555H7.36787C5.12408 8.89555 3.32148 10.7229 3.32148 12.9883V14.392H2.29577C1.03239 14.392 0 15.447 0 16.7226V21.7113C0 22.9861 1.03239 24.0322 2.29577 24.0322H3.32148V25.4471C3.32148 27.7125 5.12408 29.5279 7.36787 29.5279H9.27222V31.6904C9.27222 32.9659 10.3068 34 11.5702 34H19.4402C20.7036 34 21.7278 32.9659 21.7278 31.6904V29.5286H23.6425C25.8863 29.5286 27.7246 27.7125 27.7246 25.4471V24.0329H28.7139C29.9773 24.0329 31 22.9876 31 21.7121V16.7233C31 15.4478 29.9788 14.392 28.7139 14.392ZM6.59469 15.9502C6.59469 14.4512 7.79865 13.2372 9.28262 13.2372C10.7666 13.2372 11.9691 14.4512 11.9691 15.9502C11.9691 17.4492 10.7666 18.6632 9.28262 18.6632C7.79865 18.6632 6.59469 17.4492 6.59469 15.9502ZM19.1654 25.8498H11.845C10.6322 25.8498 9.64879 24.863 9.64879 23.637C9.64879 22.4125 10.6322 21.4257 11.845 21.4257H19.1661C20.379 21.4257 21.3624 22.4125 21.3624 23.637C21.3624 24.8615 20.3782 25.8498 19.1654 25.8498ZM21.7278 18.6632C20.2438 18.6632 19.0406 17.4492 19.0406 15.9502C19.0406 14.4512 20.2438 13.2372 21.7278 13.2372C23.2125 13.2372 24.4157 14.4512 24.4157 15.9502C24.4157 17.4492 23.2125 18.6632 21.7278 18.6632Z"/>
</svg>