<svg width="15" height="15" viewBox="0 0 15 15" fill="none" xmlns="http://www.w3.org/2000/svg" data-v-66dc518e="" data-v-cc26142c=""><path d="M0.833333 0C0.373096 0 0 0.373096 0 0.833333V10.8333C0 11.2936 0.373096 11.6667 0.833333 11.6667H1.66667V1.66667H11.6667V0.833333C11.6667 0.373096 11.2936 0 10.8333 0H0.833333Z" fill="#222429" data-v-66dc518e=""></path><path fill-rule="evenodd" clip-rule="evenodd" d="M4.16667 3.33333C3.70643 3.33333 3.33333 3.70643 3.33333 4.16667V14.1667C3.33333 14.6269 3.70643 15 4.16667 15H14.1667C14.6269 15 15 14.6269 15 14.1667V4.16667C15 3.70643 14.6269 3.33333 14.1667 3.33333H4.16667ZM5 13.3333V5H13.3333V13.3333H5Z" fill="#222429" data-v-66dc518e=""></path></svg>