<svg xmlns="http://www.w3.org/2000/svg" width="18" height="22" viewBox="0 0 18 22" fill="none">
<path d="M8.99992 21.9802C10.1916 21.9802 11.1666 21.002 11.1666 19.8064H6.83325C6.83325 21.002 7.80825 21.9802 8.99992 21.9802ZM15.4999 15.4589V10.0245C15.4999 6.68777 13.7341 3.89449 10.6249 3.15541V2.41633C10.6249 1.51422 9.89908 0.786011 8.99992 0.786011C8.10075 0.786011 7.37492 1.51422 7.37492 2.41633V3.15541C4.27659 3.89449 2.49992 6.6769 2.49992 10.0245V15.4589L0.333252 17.6326V18.7195H17.6666V17.6326L15.4999 15.4589ZM13.3333 16.5458H4.66658V10.0245C4.66658 7.32903 6.30242 5.13353 8.99992 5.13353C11.6974 5.13353 13.3333 7.32903 13.3333 10.0245V16.5458Z" fill="#BCC9DB"/>
</svg>